<?xml version="1.0" encoding="UTF-8"?>
<!DOCTYPE svg PUBLIC "-//W3C//DTD SVG 1.1//EN" "http://www.w3.org/Graphics/SVG/1.1/DTD/svg11.dtd">
<!-- Creator: CorelDRAW -->
<svg xmlns="http://www.w3.org/2000/svg" xml:space="preserve" width="520mm" height="520mm" style="shape-rendering:geometricPrecision; text-rendering:geometricPrecision; image-rendering:optimizeQuality; fill-rule:evenodd; clip-rule:evenodd"
viewBox="0 0 88.3375 88.3375"
 xmlns:xlink="http://www.w3.org/1999/xlink">
 <defs>
  <style type="text/css">
   <![CDATA[
    .str0 {stroke:#333333;stroke-width:0.033976}
    .fil0 {fill:none}
    .fil1 {fill:#333333;fill-rule:nonzero}
   ]]>
  </style>
 </defs>
 <g id="Слой_x0020_1">
  <metadata id="CorelCorpID_0Corel-Layer"/>
  <g id="_247710360">
   <path id="_244653888" class="fil0" d="M44.1687 1.6988c23.4555,0 42.4699,19.0144 42.4699,42.4699 0,23.4555 -19.0144,42.4699 -42.4699,42.4699 -23.4555,0 -42.4699,-19.0144 -42.4699,-42.4699 0,-23.4555 19.0144,-42.4699 42.4699,-42.4699zm0 -1.6988c24.3937,0 44.1687,19.775 44.1687,44.1687 0,24.3937 -19.775,44.1687 -44.1687,44.1687 -24.3937,0 -44.1687,-19.775 -44.1687,-44.1687 0,-24.3937 19.775,-44.1687 44.1687,-44.1687z"/>
   <path id="_244653432" class="fil1 str0" d="M45.2588 44.1687l0 -26.3826 1.4581 1.6988e-005 -2.54818 -7.17856 -2.54823 7.17854 1.4581 1.6988e-005 0 26.3826 2.18022 0zm0 -13.1913m0.729056 -13.1913m-0.545076 -3.58927m-2.54818 0m-0.545042 3.58927m0.729022 13.1913m1.09012 13.1913"/>
  </g>
 </g>
</svg>
