<?xml version="1.0" encoding="UTF-8"?>
<!DOCTYPE svg PUBLIC "-//W3C//DTD SVG 1.1//EN" "http://www.w3.org/Graphics/SVG/1.1/DTD/svg11.dtd">
<!-- Creator: CorelDRAW -->
<svg xmlns="http://www.w3.org/2000/svg" xml:space="preserve" width="520mm" height="520mm" style="shape-rendering:geometricPrecision; text-rendering:geometricPrecision; image-rendering:optimizeQuality; fill-rule:evenodd; clip-rule:evenodd"
viewBox="0 0 141.95 141.95"
 xmlns:xlink="http://www.w3.org/1999/xlink">
 <defs>
  <style type="text/css">
   <![CDATA[
    .str0 {stroke:#666666;stroke-width:0.0545961}
    .fil0 {fill:none}
    .fil1 {fill:#666666;fill-rule:nonzero}
   ]]>
  </style>
 </defs>
 <g id="Слой_x0020_1">
  <metadata id="CorelCorpID_0Corel-Layer"/>
  <g id="_244654296">
   <path id="_244654800" class="fil0" d="M70.975 2.72981c37.6908,0 68.2451,30.5544 68.2451,68.2451 0,37.6908 -30.5544,68.2451 -68.2451,68.2451 -37.6908,0 -68.2451,-30.5544 -68.2451,-68.2451 0,-37.6908 30.5544,-68.2451 68.2451,-68.2451zm0 -2.72981c39.1984,0 70.975,31.7766 70.975,70.975 0,39.1984 -31.7766,70.975 -70.975,70.975 -39.1984,0 -70.975,-31.7766 -70.975,-70.975 0,-39.1984 31.7766,-70.975 70.975,-70.975z"/>
   <path id="_244653624" class="fil1 str0" d="M71.5588 70.8776l0 -51.9311 0.780997 0 -1.36488 -14.1302 -1.36493 14.1302 0.781025 0 0 51.9311 1.16778 0zm0 -25.9656m0.390499 -25.9656m-0.291925 -7.06509m-1.36493 0m-0.291925 7.06509m0.390499 25.9656m0.583878 25.9656"/>
  </g>
 </g>
</svg>
