<?xml version="1.0" encoding="UTF-8"?>
<!DOCTYPE svg PUBLIC "-//W3C//DTD SVG 1.1//EN" "http://www.w3.org/Graphics/SVG/1.1/DTD/svg11.dtd">
<!-- Creator: CorelDRAW -->
<svg xmlns="http://www.w3.org/2000/svg" xml:space="preserve" width="520.2mm" height="520.2mm" style="shape-rendering:geometricPrecision; text-rendering:geometricPrecision; image-rendering:optimizeQuality; fill-rule:evenodd; clip-rule:evenodd"
viewBox="0 0 156.607 156.607"
 xmlns:xlink="http://www.w3.org/1999/xlink">
 <defs>
  <style type="text/css">
   <![CDATA[
    .str3 {stroke:#CCCCCC;stroke-width:0.0602103}
    .str0 {stroke:#999999;stroke-width:0.301052}
    .str1 {stroke:#4D4D4D;stroke-width:0.602103}
    .str2 {stroke:black;stroke-width:1.20421}
    .fil0 {fill:none}
    .fil1 {fill:#1A1A1A;fill-rule:nonzero}
   ]]>
  </style>
 </defs>
 <g id="Слой_x0020_1">
  <metadata id="CorelCorpID_0Corel-Layer"/>
  <g id="_246777480">
   <g>
    <g>
     <line id="_246576744" class="fil0 str0" x1="70.1217" y1="0.458893" x2="70.4364" y2= "3.45291" />
     <line id="_247359248" class="fil0 str0" x1="62.0296" y1="1.74056" x2="62.6555" y2= "4.68527" />
     <line id="_244655856" class="fil0 str0" x1="54.1157" y1="3.86105" x2="55.046" y2= "6.72423" />
     <line id="_247787304" class="fil0 str0" x1="46.4669" y1="6.79715" x2="47.6914" y2= "9.5474" />
     <line id="_247305376" class="fil0 str0" x1="32.2956" y1="14.9789" x2="34.0651" y2= "17.4145" />
     <line id="_247304848" class="fil0 str0" x1="25.9284" y1="20.1349" x2="27.9428" y2= "22.3722" />
     <line id="_247304704" class="fil0 str0" x1="20.1351" y1="25.9283" x2="22.3723" y2= "27.9427" />
     <line id="_247304800" class="fil0 str0" x1="14.979" y1="32.2954" x2="17.4146" y2= "34.065" />
     <line id="_247304920" class="fil0 str0" x1="6.79724" y1="46.4667" x2="9.54746" y2= "47.6912" />
     <line id="_247304872" class="fil0 str0" x1="3.86111" y1="54.1155" x2="6.72426" y2= "55.0459" />
     <line id="_248059768" class="fil0 str0" x1="1.74059" y1="62.0294" x2="4.68533" y2= "62.6553" />
     <line id="_248059432" class="fil0 str0" x1="0.458893" y1="70.1215" x2="3.45294" y2= "70.4362" />
     <line id="_248059072" class="fil0 str0" x1="0.458893" y1="86.4851" x2="3.45291" y2= "86.1705" />
     <line id="_248059144" class="fil0 str0" x1="1.74056" y1="94.5773" x2="4.68527" y2= "93.9513" />
     <line id="_248059720" class="fil0 str0" x1="3.86105" y1="102.491" x2="6.72423" y2= "101.561" />
     <line id="_248059120" class="fil0 str0" x1="6.79715" y1="110.14" x2="9.5474" y2= "108.915" />
     <line id="_247358616" class="fil0 str0" x1="14.9789" y1="124.311" x2="17.4145" y2= "122.542" />
     <line id="_244443536" class="fil0 str0" x1="20.1349" y1="130.678" x2="22.3722" y2= "128.664" />
     <line id="_247358760" class="fil0 str0" x1="25.9283" y1="136.472" x2="27.9427" y2= "134.235" />
     <line id="_247357944" class="fil0 str0" x1="32.2954" y1="141.628" x2="34.065" y2= "139.192" />
     <line id="_247118960" class="fil0 str0" x1="46.4667" y1="149.81" x2="47.6912" y2= "147.059" />
     <line id="_247119008" class="fil0 str0" x1="54.1155" y1="152.746" x2="55.0459" y2= "149.883" />
     <line id="_247113168" class="fil0 str0" x1="62.0294" y1="154.866" x2="62.6553" y2= "151.922" />
     <line id="_247111848" class="fil0 str0" x1="70.1215" y1="156.148" x2="70.4362" y2= "153.154" />
     <line id="_247112904" class="fil0 str0" x1="86.1707" y1="153.154" x2="86.4853" y2= "156.148" />
     <line id="_247113120" class="fil0 str0" x1="93.9516" y1="151.922" x2="94.5775" y2= "154.867" />
     <line id="_247112928" class="fil0 str0" x1="101.561" y1="149.883" x2="102.491" y2= "152.746" />
     <line id="_247112832" class="fil0 str0" x1="108.916" y1="147.06" x2="110.14" y2= "149.81" />
     <line id="_247113072" class="fil0 str0" x1="122.542" y1="139.192" x2="124.312" y2= "141.628" />
     <line id="_247112880" class="fil0 str0" x1="128.664" y1="134.235" x2="130.679" y2= "136.472" />
     <line id="_247112784" class="fil0 str0" x1="134.235" y1="128.664" x2="136.472" y2= "130.679" />
     <line id="_247113096" class="fil0 str0" x1="139.193" y1="122.542" x2="141.628" y2= "124.311" />
     <line id="_248059936" class="fil0 str0" x1="147.06" y1="108.916" x2="149.81" y2= "110.14" />
     <line id="_247112064" class="fil0 str0" x1="149.883" y1="101.561" x2="152.746" y2= "102.491" />
     <line id="_75158680" class="fil0 str0" x1="151.922" y1="93.9514" x2="154.867" y2= "94.5773" />
     <line id="_248056616" class="fil0 str0" x1="153.154" y1="86.1705" x2="156.148" y2= "86.4851" />
     <line id="_244439384" class="fil0 str0" x1="153.154" y1="70.4362" x2="156.148" y2= "70.1215" />
     <line id="_248056208" class="fil0 str0" x1="151.922" y1="62.6553" x2="154.867" y2= "62.0294" />
     <line id="_244444784" class="fil0 str0" x1="149.883" y1="55.0458" x2="152.746" y2= "54.1155" />
     <line id="_248057264" class="fil0 str0" x1="147.06" y1="47.6911" x2="149.81" y2= "46.4666" />
     <line id="_247305400" class="fil0 str0" x1="139.192" y1="34.0648" x2="141.628" y2= "32.2953" />
     <line id="_247304968" class="fil0 str0" x1="134.235" y1="27.9426" x2="136.472" y2= "25.9281" />
     <line id="_248057456" class="fil0 str0" x1="128.664" y1="22.372" x2="130.679" y2= "20.1348" />
     <line id="_247367064" class="fil0 str0" x1="122.542" y1="17.4143" x2="124.311" y2= "14.9787" />
     <line id="_247786568" class="fil0 str0" x1="108.916" y1="9.54716" x2="110.14" y2= "6.79693" />
     <line id="_247710120" class="fil0 str0" x1="101.561" y1="6.72399" x2="102.491" y2= "3.86081" />
     <line id="_244655736" class="fil0 str0" x1="93.9514" y1="4.68503" x2="94.5773" y2= "1.74032" />
     <line id="_244655016" class="fil0 str0" x1="86.1705" y1="3.45267" x2="86.4851" y2= "0.458652" />
     <line id="_244654944" class="fil0 str1" x1="39.1669" y1="10.5167" x2="42.1774" y2= "15.7311" />
     <line id="_244654848" class="fil0 str1" x1="10.5168" y1="39.1667" x2="15.7312" y2= "42.1772" />
     <line id="_244653864" class="fil0 str1" x1="10.5167" y1="117.44" x2="15.7311" y2= "114.429" />
     <line id="_246579984" class="fil0 str1" x1="39.1667" y1="146.09" x2="42.1772" y2= "140.876" />
     <line id="_247118624" class="fil0 str2" x1="78.3035" y1="156.577" x2="78.3035" y2= "147.545" />
     <line id="_247366944" class="fil0 str2" x1="78.3035" y1="9.06166" x2="78.3035" y2= "0.0301052" />
     <line id="_247787208" class="fil0 str1" x1="117.44" y1="146.09" x2="114.43" y2= "140.876" />
     <line id="_247118600" class="fil0 str1" x1="146.09" y1="117.44" x2="140.876" y2= "114.43" />
     <line id="_247366872" class="fil0 str1" x1="146.09" y1="39.1666" x2="140.876" y2= "42.1771" />
     <line id="_74072256" class="fil0 str1" x1="117.44" y1="10.5165" x2="114.43" y2= "15.7309" />
     <line id="_247091480" class="fil0 str2" x1="0.0301052" y1="78.3033" x2="9.06166" y2= "78.3033" />
     <line id="_246777552" class="fil0 str2" x1="156.577" y1="78.3033" x2="147.545" y2= "78.3033" />
    </g>
    <circle id="_246576720" class="fil0 str3" cx="78.3035" cy="78.3035" r="78.2734"/>
   </g>
   <path id="_247787280" class="fil1" d="M13.4102 78.4868c0.260018,0 0.543699,-0.0644552 0.848845,-0.195533 0.307314,-0.12894 0.498572,-0.255743 0.573774,-0.378241 0.0838128,-0.133215 0.163321,-0.354579 0.236386,-0.659725 0.0730652,-0.307314 0.109613,-0.59527 0.109613,-0.868203 0,-0.457719 -0.0795078,-0.816603 -0.236386,-1.07448 -0.156878,-0.257881 -0.373936,-0.386821 -0.651145,-0.386821 -0.470634,0 -0.878951,0.260048 -1.22492,0.777948 -0.345999,0.517899 -0.520067,1.11531 -0.520067,1.79008 0,0.320199 0.0752328,0.565194 0.223501,0.737095 0.148268,0.171931 0.363189,0.257881 0.640397,0.257881zm-0.485657 4.80512l-1.08954 0c-0.0966978,0 -0.165488,-0.00857997 -0.208448,-0.02577 -0.0408527,-0.0171901 -0.0623177,-0.0451277 -0.0623177,-0.0881178 0,-0.101003 0.14613,-0.294398 0.440529,-0.582385 0.294398,-0.287956 0.530784,-0.539394 0.711325,-0.75859 0.408286,-0.492099 0.756423,-0.967038 1.04655,-1.42689 0.287956,-0.459887 0.511457,-0.889698 0.666167,-1.29371 -0.272903,0.159046 -0.535089,0.277239 -0.788665,0.352441 -0.255743,0.0752027 -0.515762,0.113888 -0.78439,0.113888 -0.558722,0 -0.994976,-0.184816 -1.31301,-0.556584 -0.315894,-0.371769 -0.474939,-0.883225 -0.474939,-1.53437 0,-0.296536 0.0537377,-0.625345 0.161183,-0.984228 0.107445,-0.358884 0.257881,-0.7156 0.455582,-1.06804 0.311589,-0.554417 0.685525,-0.975618 1.12392,-1.26574 0.438391,-0.290124 0.917606,-0.434086 1.43981,-0.434086 0.7414,0 1.32378,0.247133 1.74282,0.739232 0.419064,0.494267 0.62965,1.17979 0.62965,2.05657 0,0.823075 -0.221333,1.78581 -0.661892,2.89037 -0.440529,1.10459 -1.01217,2.08882 -1.71271,2.95272 -0.277239,0.356716 -0.511457,0.597407 -0.702715,0.72421 -0.189121,0.126773 -0.397569,0.189091 -0.618902,0.189091z"/>
   <path id="_246576960" class="fil1" d="M79.6445 135.899l1.08309 0c0.0966978,0 0.163321,0.00861008 0.202006,0.0258001 0.0365176,0.0171901 0.0558451,0.0451277 0.0558451,0.0880877 0,0.0967279 -0.143963,0.287986 -0.434086,0.571637 -0.290093,0.285818 -0.526479,0.541532 -0.711295,0.769338 -0.399706,0.483519 -0.743568,0.954153 -1.02936,1.41404 -0.287986,0.459856 -0.511457,0.893973 -0.670502,1.30656 0.251438,-0.154741 0.505014,-0.270766 0.760758,-0.345999 0.255713,-0.0752027 0.520037,-0.113888 0.79297,-0.113888 0.563027,0 1.00142,0.184816 1.31945,0.554447 0.315924,0.369631 0.474939,0.881088 0.474939,1.53651 0,0.300871 -0.0537377,0.627512 -0.161183,0.977786 -0.107445,0.350274 -0.257881,0.702715 -0.455582,1.05516 -0.315894,0.554417 -0.68983,0.975618 -1.12822,1.26574 -0.436224,0.290124 -0.915438,0.434086 -1.43981,0.434086 -0.743537,0 -1.32592,-0.244966 -1.74496,-0.73279 -0.419064,-0.489962 -0.62965,-1.17335 -0.62965,-2.05013 0,-0.823045 0.221333,-1.78364 0.661892,-2.88179 0.440529,-1.09598 1.01217,-2.08448 1.71271,-2.96126 0.290124,-0.356746 0.528647,-0.599575 0.719905,-0.72421 0.191258,-0.126803 0.397569,-0.189121 0.62107,-0.189121zm-0.502877 4.81156c-0.257851,0 -0.537227,0.0644853 -0.842373,0.195563 -0.303009,0.12894 -0.496434,0.253576 -0.575942,0.371769 -0.0795078,0.124635 -0.156878,0.343831 -0.232081,0.653282 -0.0752328,0.311619 -0.113888,0.60388 -0.113888,0.881088 0,0.466329 0.0816452,0.823045 0.242828,1.07018 0.161153,0.247133 0.393264,0.371799 0.696272,0.371799 0.444834,0 0.838098,-0.260048 1.17979,-0.777948 0.341664,-0.517899 0.513594,-1.10886 0.513594,-1.77076 0,-0.324504 -0.0752027,-0.569469 -0.223501,-0.739232 -0.148268,-0.169793 -0.365326,-0.255743 -0.644702,-0.255743z"/>
   <path id="_74073816" class="fil1" d="M142.513 74.5598c-0.0344102,-0.113888 -0.0580428,-0.214891 -0.0730652,-0.303009 -0.0150526,-0.0881178 -0.0214951,-0.171931 -0.0214951,-0.251438 0,-0.255713 0.0795078,-0.438391 0.236386,-0.547974 0.156878,-0.109613 0.431949,-0.163321 0.820908,-0.163321 0.68983,0 1.27005,0.204143 1.74068,0.614597 0.472772,0.408316 0.709157,0.909026 0.709157,1.49999 0,0.427644 -0.116055,0.812328 -0.350304,1.15185 -0.232081,0.341694 -0.580217,0.625345 -1.04224,0.857425l0 0.0816753c0.404011,0.214891 0.704852,0.481382 0.904721,0.803718 0.199868,0.320199 0.298703,0.696272 0.298703,1.13036 0,0.939101 -0.358884,1.74282 -1.07662,2.41115 -0.717767,0.668335 -1.5838,1.00142 -2.60027,1.00142 -0.395401,0 -0.760728,-0.0451277 -1.09598,-0.133215 -0.335251,-0.0881178 -0.606017,-0.208478 -0.812328,-0.363189 -0.0837827,-0.0644853 -0.14613,-0.156878 -0.184786,-0.277208 -0.0408527,-0.122498 -0.0601802,-0.283681 -0.0601802,-0.485687 0,-0.163321 0.0279376,-0.303009 0.0816452,-0.416896 0.0537377,-0.116055 0.118193,-0.174068 0.189121,-0.174068 0.00430504,0 0.193396,0.0816753 0.569469,0.247133 0.376074,0.165458 0.730652,0.249271 1.06804,0.249271 0.713462,0 1.2851,-0.186953 1.71488,-0.563027 0.429812,-0.376074 0.644702,-0.87034 0.644702,-1.48494 0,-0.414759 -0.101003,-0.713462 -0.305146,-0.893973 -0.204143,-0.180511 -0.610322,-0.290124 -1.21848,-0.333084 -0.13752,-0.0129151 -0.238523,-0.0580428 -0.300841,-0.137551 -0.0623478,-0.0816452 -0.0945603,-0.206281 -0.0945603,-0.378211 0,-0.285818 0.150405,-0.459887 0.453414,-0.524342 0.101003,-0.0193576 0.180541,-0.0386851 0.238553,-0.0558752 0.537227,-0.137551 0.943406,-0.335251 1.21631,-0.588827 0.272933,-0.253576 0.408316,-0.558722 0.408316,-0.915468 0,-0.343831 -0.126803,-0.614597 -0.378211,-0.81016 -0.251438,-0.195563 -0.601712,-0.292261 -1.05085,-0.292261 -0.0881178,0 -0.186983,0.00430504 -0.296566,0.012885 -0.109613,0.00861008 -0.219196,0.0193576 -0.333084,0.0322426z"/>
   <path id="_247262136" class="fil1" d="M79.6489 19.3618l0.012885 0.0258001 2.60458 0c0.268628,0 0.446971,0.0343801 0.535089,0.101003 0.0881178,0.0665926 0.133245,0.193396 0.133245,0.378211 0,0.285818 -0.0537377,0.507152 -0.161183,0.66403 -0.107445,0.156878 -0.257881,0.236386 -0.455582,0.236386l-4.92975 0c-0.150436,0 -0.247133,-0.0214951 -0.285818,-0.0666227 -0.0408226,-0.0429601 -0.0601802,-0.124635 -0.0601802,-0.242828 0,-0.255743 0.300871,-0.623207 0.900416,-1.10242 0.520067,-0.414759 0.962763,-0.790833 1.32809,-1.12608 1.10886,-1.01644 1.89109,-1.84596 2.34884,-2.49066 0.457719,-0.644672 0.685525,-1.22492 0.685525,-1.74065 0,-0.419064 -0.12036,-0.75001 -0.358884,-0.992838 -0.238553,-0.240691 -0.567332,-0.361021 -0.982091,-0.361021 -0.176206,0 -0.365326,0.0279376 -0.567332,0.0816452 -0.199838,0.0537377 -0.309451,0.0816753 -0.326641,0.0816753 -0.180511,0 -0.300871,-0.0408226 -0.358884,-0.12036 -0.0580127,-0.0795078 -0.0881178,-0.214891 -0.0881178,-0.408286 0,-0.378241 0.101003,-0.62965 0.305176,-0.75859 0.204143,-0.126803 0.582354,-0.191258 1.1368,-0.191258 0.83596,0 1.51074,0.225638 2.02864,0.676915 0.515762,0.451307 0.773643,1.04227 0.773643,1.77292 0,1.14538 -1.26791,2.87748 -3.8037,5.20052l-0.414759 0.382516zm-4.79651 -6.174c-0.356746,0.264323 -0.67264,0.472772 -0.949848,0.62965 -0.277239,0.15471 -0.466329,0.232081 -0.567332,0.232081 -0.0967279,0 -0.206311,-0.0816753 -0.330946,-0.244996 -0.122498,-0.163321 -0.184816,-0.311589 -0.184816,-0.440529 0,-0.131078 0.361021,-0.427644 1.08309,-0.889668l0.206281 -0.124666c0.0966978,-0.0623177 0.232111,-0.150405 0.404011,-0.257851 0.79297,-0.500739 1.2894,-0.75001 1.49138,-0.75001 0.159046,0 0.296566,0.0429902 0.414759,0.126803 0.118193,0.0838128 0.176236,0.182648 0.176236,0.294398 0,0.0258001 -0.186983,0.676915 -0.560889,1.95557 -0.371769,1.27863 -0.734958,2.60241 -1.0874,3.96916 -0.161153,0.606017 -0.309451,1.21417 -0.446971,1.82449 -0.139688,0.610292 -0.214891,0.930491 -0.227806,0.960596 -0.0451277,0.13752 -0.105278,0.225638 -0.176206,0.264323 -0.0709278,0.0365176 -0.247133,0.0558752 -0.528647,0.0558752 -0.285818,0 -0.487824,-0.0344102 -0.608155,-0.101003 -0.118193,-0.0666227 -0.178373,-0.180511 -0.178373,-0.339556 0,-0.171901 0.13752,-0.737095 0.412591,-1.69769 0.275071,-0.958428 0.82738,-2.78078 1.65904,-5.46698z"/>
  </g>
 </g>
</svg>
